<?xml version="1.0" standalone="no"?>
<!DOCTYPE svg PUBLIC "-//W3C//DTD SVG 20010904//EN"
 "http://www.w3.org/TR/2001/REC-SVG-20010904/DTD/svg10.dtd">
<svg version="1.0" xmlns="http://www.w3.org/2000/svg"
 width="1000.000000pt" height="500.000000pt" viewBox="0 0 1000.000000 500.000000"
 preserveAspectRatio="xMidYMid meet">

<g transform="translate(0.000000,500.000000) scale(0.100000,-0.100000)"
fill="#000000" stroke="none">
<path d="M0 2500 l0 -2500 5000 0 5000 0 0 2500 0 2500 -5000 0 -5000 0 0
-2500z m4290 2425 c195 -62 441 -214 626 -387 l64 -61 58 55 c201 191 479 360
672 409 122 31 262 24 343 -16 111 -55 191 -171 237 -340 43 -160 38 -483 -11
-724 -10 -51 -19 -99 -19 -107 0 -8 24 -20 58 -30 271 -78 552 -232 701 -383
186 -189 208 -378 66 -577 -119 -167 -385 -336 -690 -440 -60 -20 -114 -41
-119 -45 -5 -5 0 -53 13 -116 57 -288 54 -581 -9 -773 -93 -283 -311 -388
-611 -294 -179 56 -370 172 -579 351 l-108 91 -28 -30 c-97 -101 -328 -265
-479 -338 -241 -118 -438 -137 -588 -57 -234 124 -314 513 -211 1026 13 68 22
126 19 129 -2 3 -42 17 -87 32 -442 143 -759 391 -818 639 -50 214 122 450
460 629 101 54 284 128 388 157 34 10 62 23 62 29 0 6 -11 68 -25 137 -34 175
-48 342 -41 481 17 317 132 518 326 573 81 22 222 14 330 -20z m-1196 -4236
c110 -31 142 -168 58 -248 -23 -22 -32 -36 -24 -39 24 -8 44 -66 52 -151 4
-47 11 -94 15 -103 6 -15 2 -18 -23 -18 -37 0 -39 5 -51 124 -12 124 -18 128
-166 134 l-115 5 0 -132 0 -131 -30 0 -30 0 0 285 0 285 138 0 c75 0 155 -5
176 -11z m2199 -235 l162 -246 3 246 2 246 30 0 30 0 0 -285 0 -285 -36 0
c-35 0 -36 1 -192 240 -86 132 -160 240 -164 240 -5 0 -8 -108 -8 -240 l0
-240 -25 0 -25 0 0 285 0 285 30 0 c29 0 40 -14 193 -246z m1057 211 c0 -31
-3 -35 -25 -35 -22 0 -25 4 -25 35 0 31 3 35 25 35 22 0 25 -4 25 -35z m-1662
-67 l3 -58 34 0 c28 0 35 -4 35 -20 0 -16 -7 -20 -35 -20 l-35 0 0 -159 c0
-174 5 -189 56 -177 22 6 25 4 22 -16 -2 -19 -10 -24 -41 -26 -23 -2 -48 3
-63 13 -24 15 -24 16 -24 190 l0 175 -30 0 c-23 0 -30 4 -30 20 0 16 7 20 30
20 l30 0 0 61 c0 57 1 60 23 57 19 -3 22 -10 25 -60z m1450 0 l3 -58 39 0 c33
0 40 -3 40 -20 0 -17 -7 -20 -40 -20 l-40 0 0 -159 c0 -174 5 -189 56 -177 22
6 25 4 22 -16 -4 -33 -77 -39 -107 -9 -20 20 -21 33 -21 191 l0 170 -30 0
c-23 0 -30 5 -30 19 0 14 8 21 28 23 26 3 27 6 30 61 3 54 5 58 25 55 19 -3
22 -10 25 -60z m-2601 -59 c63 -24 113 -107 113 -191 l0 -28 -159 0 -158 0 7
-37 c14 -79 56 -117 130 -117 53 0 93 23 110 64 9 21 19 30 36 30 52 0 6 -87
-64 -121 -92 -45 -206 -9 -247 78 -24 48 -30 136 -16 191 14 50 63 109 106
128 37 16 104 18 142 3z m457 -4 c55 -26 61 -45 66 -215 5 -153 5 -155 28
-153 33 4 30 -35 -3 -43 -29 -7 -75 18 -75 41 0 12 -10 9 -41 -12 -81 -53
-200 -38 -236 30 -18 36 -12 100 12 127 24 26 86 48 168 59 95 13 114 34 86
95 -31 68 -175 53 -200 -21 -8 -26 -16 -33 -36 -33 -23 0 -25 3 -19 32 7 36
28 63 71 89 37 23 134 25 179 4z m445 -3 c39 -19 67 -54 77 -94 5 -25 3 -28
-18 -28 -17 0 -29 10 -42 34 -49 91 -181 79 -222 -20 -23 -54 -18 -155 9 -195
59 -89 186 -85 219 7 10 28 17 34 40 34 33 0 32 2 14 -41 -40 -96 -152 -135
-252 -90 -65 30 -104 102 -104 195 0 85 50 174 114 202 44 19 125 17 165 -4z
m1447 2 c19 -9 40 -26 47 -38 7 -13 14 -82 17 -176 5 -153 5 -155 28 -153 32
4 30 -35 -2 -43 -30 -7 -63 9 -71 37 -6 19 -8 19 -24 5 -75 -68 -219 -57 -255
19 -20 41 -20 56 -1 101 18 43 70 68 173 83 40 5 80 15 88 21 32 27 7 94 -41
110 -68 22 -147 -10 -161 -65 -8 -31 -54 -36 -54 -6 0 29 43 85 80 103 44 23
131 23 176 2z m1222 2 c60 -31 102 -104 102 -176 l0 -40 -156 0 -157 0 6 -41
c16 -119 172 -156 236 -56 17 25 32 37 48 37 28 0 28 -5 0 -55 -66 -116 -252
-113 -317 5 -47 85 -28 233 36 292 53 47 146 63 202 34z m-758 -201 l0 -205
-25 0 -25 0 0 205 0 205 25 0 25 0 0 -205z m164 113 c19 -51 49 -129 65 -173
27 -74 30 -78 39 -55 5 14 32 84 60 155 28 72 53 138 57 148 7 16 55 25 55 10
0 -5 -34 -97 -76 -206 l-77 -198 -29 3 c-29 3 -32 9 -104 198 -40 107 -74 198
-74 203 0 4 11 7 24 7 21 0 28 -12 60 -92z"/>
<path d="M4060 4773 c-127 -15 -195 -102 -229 -297 -32 -179 21 -686 70 -679
8 1 77 14 154 28 77 14 202 33 278 42 l139 16 90 119 c49 65 134 169 188 232
l98 113 -41 40 c-102 96 -256 209 -379 277 -124 69 -289 117 -368 109z"/>
<path d="M5754 4761 c-171 -46 -386 -178 -584 -359 -42 -39 -53 -54 -45 -65 6
-8 59 -72 119 -143 59 -71 138 -170 175 -220 l66 -92 65 -6 c103 -10 316 -43
420 -65 52 -11 98 -17 102 -13 21 21 68 351 68 477 0 230 -64 424 -158 478
-48 28 -142 31 -228 8z"/>
<path d="M4924 4152 c-43 -49 -172 -205 -196 -238 -7 -9 57 -12 252 -12 195 0
259 3 252 12 -74 98 -242 296 -251 296 -3 0 -29 -26 -57 -58z"/>
<path d="M4658 3713 l-78 -4 -42 -62 c-78 -115 -224 -363 -294 -501 l-69 -136
50 -97 c72 -140 173 -314 267 -463 69 -109 88 -131 113 -136 41 -9 646 -9 721
0 l61 8 85 136 c105 168 200 336 263 463 l48 96 -70 134 c-74 141 -206 364
-287 485 l-47 71 -112 6 c-110 7 -457 6 -609 0z m388 -314 c32 -6 82 -22 110
-35 65 -31 147 -117 182 -191 24 -51 27 -70 27 -158 -1 -88 -4 -107 -28 -157
-41 -84 -107 -152 -185 -190 -62 -31 -73 -33 -172 -33 -93 0 -112 3 -162 27
-80 37 -152 107 -191 187 -30 61 -32 72 -32 171 0 95 3 110 28 163 53 106 165
194 277 216 63 12 79 12 146 0z"/>
<path d="M4260 3673 c-95 -15 -316 -56 -319 -58 -8 -9 126 -375 138 -375 4 0
22 30 40 67 18 37 73 133 122 215 49 81 89 150 89 153 0 5 -30 5 -70 -2z"/>
<path d="M5700 3550 c44 -73 101 -172 128 -221 26 -49 50 -89 53 -89 16 0 144
359 132 370 -7 7 -237 51 -346 66 l-47 6 80 -132z"/>
<path d="M3595 3516 c-135 -48 -300 -128 -390 -189 -83 -56 -191 -166 -215
-219 -26 -58 -26 -130 2 -186 12 -25 50 -75 85 -112 123 -132 313 -239 582
-331 80 -27 101 -29 101 -8 0 18 93 266 151 403 l59 138 -64 152 c-36 83 -84
206 -107 274 -36 105 -44 122 -63 121 -11 0 -75 -19 -141 -43z"/>
<path d="M6176 3478 c-35 -100 -113 -298 -155 -392 l-32 -69 52 -116 c68 -152
110 -258 144 -359 32 -97 17 -94 175 -35 374 138 630 345 630 508 0 147 -221
338 -542 466 -74 30 -219 79 -233 79 -6 0 -24 -37 -39 -82z"/>
<path d="M4056 2743 c-58 -152 -116 -314 -116 -327 0 -9 17 -18 48 -24 75 -17
331 -54 341 -50 6 2 -17 46 -50 98 -33 52 -92 152 -131 223 -38 70 -71 127
-72 127 -1 0 -10 -21 -20 -47z"/>
<path d="M5867 2768 c-8 -13 -35 -61 -60 -108 -25 -47 -77 -137 -115 -200 -39
-63 -69 -116 -68 -117 7 -7 392 60 402 70 9 8 -130 377 -142 377 -2 0 -10 -10
-17 -22z"/>
<path d="M6015 2219 c-75 -18 -267 -49 -399 -64 -115 -13 -133 -18 -146 -37
-64 -94 -223 -297 -337 -429 -13 -15 -8 -22 39 -67 179 -169 414 -315 574
-356 76 -20 174 -21 217 -2 73 31 134 131 164 268 24 108 21 369 -6 518 -34
191 -31 187 -106 169z"/>
<path d="M3866 2150 c-46 -202 -60 -476 -31 -624 45 -237 153 -312 375 -261
86 20 285 119 388 192 97 70 252 201 252 213 0 4 -41 55 -91 112 -50 56 -133
160 -186 229 l-95 126 -121 13 c-101 10 -258 34 -443 67 l-32 5 -16 -72z"/>
<path d="M4730 2114 c0 -9 98 -130 183 -227 59 -67 71 -76 85 -65 21 18 170
195 210 252 l33 46 -255 0 c-141 0 -256 -3 -256 -6z"/>
<path d="M2840 544 l0 -106 121 4 121 3 29 33 c20 23 29 43 29 68 0 83 -39
104 -190 104 l-110 0 0 -106z"/>
<path d="M3435 503 c-40 -10 -95 -78 -95 -118 0 -13 19 -15 131 -15 l130 0 -6
23 c-15 52 -28 77 -50 91 -26 17 -81 27 -110 19z"/>
<path d="M3940 328 c-30 -5 -69 -11 -87 -14 -70 -10 -101 -81 -55 -127 45 -44
165 -18 197 43 15 30 21 111 8 109 -5 -1 -33 -6 -63 -11z"/>
<path d="M5802 324 c-107 -16 -132 -32 -132 -83 0 -62 54 -91 130 -71 67 18
92 48 98 113 2 31 1 56 -4 56 -5 -1 -46 -8 -92 -15z"/>
<path d="M6980 493 c-38 -19 -80 -75 -80 -104 0 -18 10 -19 130 -19 78 0 130
4 130 10 0 25 -34 90 -54 104 -39 25 -87 29 -126 9z"/>
</g>
</svg>
